<svg id="visual" viewBox="0 0 960 540" width="960" height="540" xmlns="http://www.w3.org/2000/svg" xmlns:xlink="http://www.w3.org/1999/xlink" version="1.1"><rect x="0" y="0" width="960" height="540" fill="#7f00ff"></rect><defs><linearGradient id="grad1_0" x1="43.8%" y1="0%" x2="100%" y2="100%"><stop offset="14.444444444444446%" stop-color="#7d2965" stop-opacity="1"></stop><stop offset="85.55555555555554%" stop-color="#7d2965" stop-opacity="1"></stop></linearGradient></defs><defs><linearGradient id="grad1_1" x1="43.8%" y1="0%" x2="100%" y2="100%"><stop offset="14.444444444444446%" stop-color="#7d2965" stop-opacity="1"></stop><stop offset="85.55555555555554%" stop-color="#891d77" stop-opacity="1"></stop></linearGradient></defs><defs><linearGradient id="grad1_2" x1="43.8%" y1="0%" x2="100%" y2="100%"><stop offset="14.444444444444446%" stop-color="#930b8d" stop-opacity="1"></stop><stop offset="85.55555555555554%" stop-color="#891d77" stop-opacity="1"></stop></linearGradient></defs><defs><linearGradient id="grad1_3" x1="43.8%" y1="0%" x2="100%" y2="100%"><stop offset="14.444444444444446%" stop-color="#930b8d" stop-opacity="1"></stop><stop offset="85.55555555555554%" stop-color="#9800a5" stop-opacity="1"></stop></linearGradient></defs><defs><linearGradient id="grad1_4" x1="43.8%" y1="0%" x2="100%" y2="100%"><stop offset="14.444444444444446%" stop-color="#9800c0" stop-opacity="1"></stop><stop offset="85.55555555555554%" stop-color="#9800a5" stop-opacity="1"></stop></linearGradient></defs><defs><linearGradient id="grad1_5" x1="43.8%" y1="0%" x2="100%" y2="100%"><stop offset="14.444444444444446%" stop-color="#9800c0" stop-opacity="1"></stop><stop offset="85.55555555555554%" stop-color="#9100de" stop-opacity="1"></stop></linearGradient></defs><defs><linearGradient id="grad1_6" x1="43.8%" y1="0%" x2="100%" y2="100%"><stop offset="14.444444444444446%" stop-color="#7f00ff" stop-opacity="1"></stop><stop offset="85.55555555555554%" stop-color="#9100de" stop-opacity="1"></stop></linearGradient></defs><defs><linearGradient id="grad2_0" x1="0%" y1="0%" x2="56.3%" y2="100%"><stop offset="14.444444444444446%" stop-color="#7d2965" stop-opacity="1"></stop><stop offset="85.55555555555554%" stop-color="#7d2965" stop-opacity="1"></stop></linearGradient></defs><defs><linearGradient id="grad2_1" x1="0%" y1="0%" x2="56.3%" y2="100%"><stop offset="14.444444444444446%" stop-color="#891d77" stop-opacity="1"></stop><stop offset="85.55555555555554%" stop-color="#7d2965" stop-opacity="1"></stop></linearGradient></defs><defs><linearGradient id="grad2_2" x1="0%" y1="0%" x2="56.3%" y2="100%"><stop offset="14.444444444444446%" stop-color="#891d77" stop-opacity="1"></stop><stop offset="85.55555555555554%" stop-color="#930b8d" stop-opacity="1"></stop></linearGradient></defs><defs><linearGradient id="grad2_3" x1="0%" y1="0%" x2="56.3%" y2="100%"><stop offset="14.444444444444446%" stop-color="#9800a5" stop-opacity="1"></stop><stop offset="85.55555555555554%" stop-color="#930b8d" stop-opacity="1"></stop></linearGradient></defs><defs><linearGradient id="grad2_4" x1="0%" y1="0%" x2="56.3%" y2="100%"><stop offset="14.444444444444446%" stop-color="#9800a5" stop-opacity="1"></stop><stop offset="85.55555555555554%" stop-color="#9800c0" stop-opacity="1"></stop></linearGradient></defs><defs><linearGradient id="grad2_5" x1="0%" y1="0%" x2="56.3%" y2="100%"><stop offset="14.444444444444446%" stop-color="#9100de" stop-opacity="1"></stop><stop offset="85.55555555555554%" stop-color="#9800c0" stop-opacity="1"></stop></linearGradient></defs><defs><linearGradient id="grad2_6" x1="0%" y1="0%" x2="56.3%" y2="100%"><stop offset="14.444444444444446%" stop-color="#9100de" stop-opacity="1"></stop><stop offset="85.55555555555554%" stop-color="#7f00ff" stop-opacity="1"></stop></linearGradient></defs><g transform="translate(960, 0)"><path d="M0 459C-33.9 420.3 -67.8 381.6 -96 358.4C-124.3 335.1 -146.9 327.3 -191.5 331.7C-236.1 336.1 -302.6 352.8 -324.6 324.6C-346.5 296.3 -324 223.2 -302.2 174.5C-280.5 125.8 -259.6 101.6 -285.9 76.6C-312.2 51.6 -385.6 25.8 -459 0L0 0Z" fill="#8a00ee"></path><path d="M0 393.4C-29 360.3 -58.1 327.1 -82.3 307.2C-106.5 287.2 -125.9 280.5 -164.1 284.3C-202.4 288.1 -259.4 302.4 -278.2 278.2C-297 254 -277.7 191.3 -259.1 149.6C-240.4 107.8 -222.6 87.1 -245.1 65.7C-267.6 44.2 -330.5 22.1 -393.4 0L0 0Z" fill="#9600cf"></path><path d="M0 327.9C-24.2 300.2 -48.4 272.6 -68.6 256C-88.8 239.4 -104.9 233.8 -136.8 236.9C-168.6 240.1 -216.1 252 -231.8 231.8C-247.5 211.7 -231.4 159.4 -215.9 124.6C-200.4 89.9 -185.5 72.6 -204.2 54.7C-223 36.9 -275.4 18.4 -327.9 0L0 0Z" fill="#9900b2"></path><path d="M0 262.3C-19.4 240.2 -38.7 218.1 -54.9 204.8C-71 191.5 -84 187 -109.4 189.5C-134.9 192.1 -172.9 201.6 -185.5 185.5C-198 169.3 -185.1 127.5 -172.7 99.7C-160.3 71.9 -148.4 58.1 -163.4 43.8C-178.4 29.5 -220.3 14.7 -262.3 0L0 0Z" fill="#960098"></path><path d="M0 196.7C-14.5 180.1 -29 163.6 -41.2 153.6C-53.3 143.6 -63 140.3 -82.1 142.2C-101.2 144 -129.7 151.2 -139.1 139.1C-148.5 127 -138.8 95.6 -129.5 74.8C-120.2 53.9 -111.3 43.5 -122.5 32.8C-133.8 22.1 -165.3 11.1 -196.7 0L0 0Z" fill="#8e1682"></path><path d="M0 131.1C-9.7 120.1 -19.4 109 -27.4 102.4C-35.5 95.7 -42 93.5 -54.7 94.8C-67.5 96 -86.5 100.8 -92.7 92.7C-99 84.7 -92.6 63.8 -86.4 49.9C-80.1 35.9 -74.2 29 -81.7 21.9C-89.2 14.7 -110.2 7.4 -131.1 0L0 0Z" fill="#84246e"></path><path d="M0 65.6C-4.8 60 -9.7 54.5 -13.7 51.2C-17.8 47.9 -21 46.8 -27.4 47.4C-33.7 48 -43.2 50.4 -46.4 46.4C-49.5 42.3 -46.3 31.9 -43.2 24.9C-40.1 18 -37.1 14.5 -40.8 10.9C-44.6 7.4 -55.1 3.7 -65.6 0L0 0Z" fill="#7d2965"></path></g><g transform="translate(0, 540)"><path d="M0 -459C16.1 -374.5 32.1 -289.9 79.7 -297.5C127.3 -305.1 206.4 -404.9 229.5 -397.5C252.6 -390.2 219.7 -275.7 224.2 -224.2C228.6 -172.6 270.4 -184 302.2 -174.5C334.1 -165 356.1 -134.5 380.6 -102C405.1 -69.4 432 -34.7 459 0L0 0Z" fill="#8a00ee"></path><path d="M0 -393.4C13.8 -321 27.5 -248.5 68.3 -255C109.1 -261.5 176.9 -347 196.7 -340.7C216.5 -334.4 188.3 -236.3 192.1 -192.1C195.9 -148 231.7 -157.7 259.1 -149.6C286.4 -141.4 305.2 -115.3 326.2 -87.4C347.2 -59.5 370.3 -29.7 393.4 0L0 0Z" fill="#9600cf"></path><path d="M0 -327.9C11.5 -267.5 23 -207.1 56.9 -212.5C90.9 -217.9 147.4 -289.2 163.9 -283.9C180.4 -278.7 156.9 -196.9 160.1 -160.1C163.3 -123.3 193.1 -131.4 215.9 -124.6C238.7 -117.8 254.4 -96.1 271.8 -72.8C289.3 -49.6 308.6 -24.8 327.9 0L0 0Z" fill="#9900b2"></path><path d="M0 -262.3C9.2 -214 18.4 -165.7 45.6 -170C72.7 -174.3 117.9 -231.3 131.1 -227.1C144.3 -222.9 125.5 -157.5 128.1 -128.1C130.6 -98.6 154.5 -105.2 172.7 -99.7C190.9 -94.3 203.5 -76.9 217.5 -58.3C231.5 -39.7 246.9 -19.8 262.3 0L0 0Z" fill="#960098"></path><path d="M0 -196.7C6.9 -160.5 13.8 -124.2 34.2 -127.5C54.6 -130.8 88.5 -173.5 98.4 -170.4C108.3 -167.2 94.2 -118.2 96.1 -96.1C98 -74 115.9 -78.9 129.5 -74.8C143.2 -70.7 152.6 -57.7 163.1 -43.7C173.6 -29.7 185.2 -14.9 196.7 0L0 0Z" fill="#8e1682"></path><path d="M0 -131.1C4.6 -107 9.2 -82.8 22.8 -85C36.4 -87.2 59 -115.7 65.6 -113.6C72.2 -111.5 62.8 -78.8 64 -64C65.3 -49.3 77.2 -52.6 86.4 -49.9C95.5 -47.1 101.7 -38.4 108.7 -29.1C115.7 -19.8 123.4 -9.9 131.1 0L0 0Z" fill="#84246e"></path><path d="M0 -65.6C2.3 -53.5 4.6 -41.4 11.4 -42.5C18.2 -43.6 29.5 -57.8 32.8 -56.8C36.1 -55.7 31.4 -39.4 32 -32C32.7 -24.7 38.6 -26.3 43.2 -24.9C47.7 -23.6 50.9 -19.2 54.4 -14.6C57.9 -9.9 61.7 -5 65.6 0L0 0Z" fill="#7d2965"></path></g></svg>